<svg id="圖層_1" data-name="圖層 1" xmlns="http://www.w3.org/2000/svg" xmlns:xlink="http://www.w3.org/1999/xlink" viewBox="0 0 2267.72 2267.72"><defs><style>.cls-1,.cls-8{fill:none;}.cls-2{opacity:0.9;}.cls-3{clip-path:url(#clip-path);}.cls-4{fill:#fcfbfa;}.cls-5{fill:#ca7159;}.cls-6{fill:#cbc1aa;}.cls-7{fill:#efebe4;}.cls-8{stroke:#ca7159;stroke-miterlimit:10;stroke-width:31.68px;}.cls-9{fill:#613e3b;}</style><clipPath id="clip-path"><ellipse class="cls-1" cx="1133.86" cy="1133.86" rx="790.59" ry="793.4"/></clipPath></defs><title>web-icon</title><g class="cls-2"><g class="cls-3"><path class="cls-4" d="M208.33,866.2S218.26,39.45,1290.46-43.23,2640.64,638.85,2640.64,638.85,2978.19,1855.31,2184,1908.48,228.19,2292.36,208.33,866.2Z"/><path class="cls-5" d="M-345.8,1570.33s6.56-546.72,715.59-601.39,892.84,451,892.84,451,223.21,804.42-302,839.58S-332.67,2513.41-345.8,1570.33Z"/><path class="cls-6" d="M1056.34,507.43S1062.91-39.28,1771.93-94s892.85,451.05,892.85,451.05,223.21,804.41-302,839.58S1069.47,1450.52,1056.34,507.43Z"/><path class="cls-7" d="M1001.29,609.26S994.73,62.54,285.7,7.87s-892.84,451-892.84,451-223.21,804.42,302,839.58S988.16,1552.34,1001.29,609.26Z"/></g></g><ellipse class="cls-8" cx="1133.86" cy="1133.86" rx="789.08" ry="793.37"/><path class="cls-9" d="M1188,1035.15c-25.77,0-43,12.93-54.16,26.78-11.11-13.85-28.39-26.78-54.16-26.78-40.49,0-72.21,33.56-72.21,76.4,0,45.42,36.32,75.9,86.59,118.08,8.92,7.49,18.16,15.24,28,23.68a18.12,18.12,0,0,0,23.65,0c9.84-8.48,19.11-16.25,28.07-23.77,45.64-38.31,86.47-70.49,86.47-118,0-42.84-31.71-76.4-72.2-76.4Zm-37.56,167c-5.4,4.53-10.91,9.15-16.6,14-5.66-4.8-11.13-9.39-16.5-13.89-46-38.6-73.76-61.9-73.76-90.65,0-19.64,12.65-40.51,36.1-40.51,26.71,0,36.39,32.23,36.76,33.51a18.07,18.07,0,0,0,34.77.09c.4-1.37,10.08-33.6,36.79-33.6,23.45,0,36.1,20.87,36.1,40.51,0,32.37-40.48,62.71-73.66,90.56Z"/><ellipse class="cls-9" cx="1433.53" cy="1485.63" rx="18.05" ry="17.95"/><path class="cls-9" d="M1596,1080c0-132.78-47.33-213.84-132.82-295.2-32-30.48-62.32-59.27-75.9-98.34a18,18,0,0,0-17.06-12.08H1079.7c-133.55,0-215.08,47.06-296.92,132.05-30.66,31.86-59.62,61.95-98.91,75.46a18,18,0,0,0-12.15,17V1187.7c0,132.77,47.33,213.83,132.82,295.2,32,30.48,62.31,59.27,75.9,98.34a18,18,0,0,0,17.06,12.08H1188c72.28,0,133.93-14.6,188.48-44.62a17.89,17.89,0,0,0,7-24.4,18.1,18.1,0,0,0-24.53-7c-49.06,27-105,40.13-171,40.13h-88.18a80.85,80.85,0,0,1,57-59.06c20-5.57,54.83-10.65,91.72-16l.21,0c72-10.52,109.22-44.92,158-95.57a17.89,17.89,0,0,0-.56-25.38,18.13,18.13,0,0,0-25.52.56c-23.16,24.06-47,48.95-76,65.11-20.64,10.72-41.17,3-50.28-13.83A35.7,35.7,0,0,1,1269,1364.6c18.9-10.12,35.9-27.81,59.42-52.28,65.22-67.79,147.61-106.67,226-106.67h5.41v150.93c-32.87,14.12-58.48,36.88-81.34,59.69a17.88,17.88,0,0,0,0,25.39,18.13,18.13,0,0,0,25.53-.05c22.55-22.5,47.81-44.83,79.73-55.8a18,18,0,0,0,12.15-17V1080ZM707.82,911.14c41.22-17.71,71.59-49.26,101-79.87,56.36-58.53,128.41-121,270.83-121l88.18,0a80.86,80.86,0,0,1-57,59.07c-20,5.57-54.83,10.65-91.73,16l-.2,0c-26.44,3.86-49.55,11.18-70.63,22.38C914.39,825.68,887.91,853,861,881a17.86,17.86,0,0,0,.56,25.37,18.12,18.12,0,0,0,25.52-.56c23.94-24.86,48.66-50.72,78.11-66.25a36.39,36.39,0,0,1,48.2,15,35.71,35.71,0,0,1-14.68,48.59c-18.9,10.12-35.9,27.81-59.42,52.28-65.22,67.79-147.61,106.67-226,106.67h-5.42Zm353.83,646.28H909.84c-17.81-41-49.55-71.17-80.33-100.46-58.88-56-121.69-127.67-121.69-269.26V1100a80.89,80.89,0,0,1,59.41,56.65c5.61,19.89,10.72,54.55,16.15,91.41,10.66,72.08,44.63,108.06,96.13,157.06a18.14,18.14,0,0,0,25.53-.56,17.88,17.88,0,0,0-.57-25.38c-24.35-23.16-49.44-47-65.21-75-11.18-20.69-3.39-41.41,13.64-50.52a36.12,36.12,0,0,1,48.87,14.6c10.18,18.79,28,35.69,52.59,59.07,68.18,64.84,107.29,146.75,107.29,224.73Zm240.69-269.91c-20.43,21.27-36.57,38.06-50.42,45.48a71.48,71.48,0,0,0-29.36,97.24,72.37,72.37,0,0,0,13.46,17.65c-35.33,5.16-68.15,10.12-88.94,15.91a117.06,117.06,0,0,0-54.79,33.6c-13.78-70-53.26-139.24-113-196-21.39-20.31-38.29-36.36-45.75-50.13A72.42,72.42,0,0,0,818,1235.43c-5.19-35.13-10.18-67.76-16-88.43a116.11,116.11,0,0,0-33.8-54.47c70.41-13.7,140-53,197.18-112.33,20.43-21.26,36.57-38.06,50.42-45.48a71.46,71.46,0,0,0,15.85-114.88c35.34-5.16,68.19-10.13,89-15.92a116.92,116.92,0,0,0,54.78-33.6c13.79,70,53.27,139.24,113,196,21.39,20.32,38.28,36.37,45.74,50.14a72.31,72.31,0,0,0,97.81,29.18,71.08,71.08,0,0,0,17.74-13.43c5.2,35.15,10.19,67.8,16,88.48a116,116,0,0,0,33.79,54.46C1429.11,1188.89,1359.46,1228.14,1302.34,1287.51Zm257.55-119.83a80.92,80.92,0,0,1-59.41-56.65c-5.6-19.88-10.71-54.55-16.15-91.4-10.55-71.36-44.11-107.57-96.13-157.06a18.13,18.13,0,0,0-25.52.56,17.87,17.87,0,0,0,.56,25.37c25.15,23.93,50.16,47.54,66.68,77.72a36.05,36.05,0,0,1-64,33.26c-10.18-18.79-28-35.69-52.59-59.07-68.19-64.84-107.29-146.76-107.29-224.73v-5.39h151.81c17.8,41,49.55,71.18,80.33,100.46,58.87,56,121.68,127.67,121.68,269.27Z"/></svg>