<svg id="圖層_1" data-name="圖層 1" xmlns="http://www.w3.org/2000/svg" xmlns:xlink="http://www.w3.org/1999/xlink" viewBox="0 0 2267.72 2267.72"><defs><style>.cls-1,.cls-8{fill:none;}.cls-2{opacity:0.9;}.cls-3{clip-path:url(#clip-path);}.cls-4{fill:#fcfbfa;}.cls-5{fill:#ca7159;}.cls-6{fill:#cbc1aa;}.cls-7{fill:#efebe4;}.cls-8{stroke:#ca7159;stroke-miterlimit:10;stroke-width:31.68px;}.cls-9{fill:#613e3b;}</style><clipPath id="clip-path"><ellipse class="cls-1" cx="1133.86" cy="1133.86" rx="790.59" ry="793.4"/></clipPath></defs><title>web-icon</title><g class="cls-2"><g class="cls-3"><path class="cls-4" d="M208.33,866.2S218.26,39.45,1290.46-43.23,2640.64,638.85,2640.64,638.85,2978.19,1855.31,2184,1908.48,228.19,2292.36,208.33,866.2Z"/><path class="cls-5" d="M-345.8,1570.33s6.56-546.72,715.59-601.39,892.84,451,892.84,451,223.21,804.42-302,839.58S-332.67,2513.41-345.8,1570.33Z"/><path class="cls-6" d="M1056.34,507.43S1062.91-39.28,1771.93-94s892.85,451.05,892.85,451.05,223.21,804.41-302,839.58S1069.47,1450.52,1056.34,507.43Z"/><path class="cls-7" d="M1001.29,609.26S994.73,62.54,285.7,7.87s-892.84,451-892.84,451-223.21,804.42,302,839.58S988.16,1552.34,1001.29,609.26Z"/></g></g><ellipse class="cls-8" cx="1133.86" cy="1133.86" rx="787.7" ry="793.4"/><g id="Out_line" data-name="Out line"><path class="cls-9" d="M1435.57,1184.47l55.3-445.59c5.51-44.4-25.76-84.88-69.83-90.43a79.24,79.24,0,0,0-10-.63H1190.75a80.82,80.82,0,0,0-75.3,52.57L1013,975.71a93.72,93.72,0,0,1-87.3,60.94H824.47a48.48,48.48,0,0,0-48.25,48.6v97.21a16.15,16.15,0,0,0,16.08,16.2h45.59l-57.12,374a40.69,40.69,0,0,0,79.86,15.44l89.23-389.45h60.9l-57.13,374a40.69,40.69,0,0,0,79.86,15.44l89.23-389.45h63l89.23,389.45a40.69,40.69,0,0,0,79.86-15.44l-57.13-374h16.71l89.23,389.45a40.69,40.69,0,0,0,79.87-15.44l-57.34-375.42A16.18,16.18,0,0,0,1435.57,1184.47ZM888.81,1069.05h36.84a126,126,0,0,0,117.42-82l102.5-275.33a48.5,48.5,0,0,1,45.18-31.53h220.31a48.43,48.43,0,0,1,48.26,48.6,50.57,50.57,0,0,1-.37,6h0L1431.7,954.38a93.85,93.85,0,0,1-70.14,79.5,126.25,126.25,0,0,0,37.72-75.47l20.2-162.77-31.92-4-20.2,162.77c-5.89,47-45.52,82.19-92.51,82.26a48.48,48.48,0,0,0-48.26,48.6v19a47.64,47.64,0,0,0-16.08-2.79H888.81a47.64,47.64,0,0,0-16.08,2.79v-19A16.16,16.16,0,0,1,888.81,1069.05Zm434.29,97.21v-81a16.16,16.16,0,0,1,16.08-16.2,124.57,124.57,0,0,0,82.14-31l-15.91,128.18Zm-29.41-97.21a48.55,48.55,0,0,0-2.76,16.2v81h-32.17v-81a16.17,16.17,0,0,1,16.09-16.2Zm-67.1,97.21H872.73v-16.21a16.16,16.16,0,0,1,16.08-16.2h321.7a16.16,16.16,0,0,1,16.08,16.2Zm-418.2-81a16.16,16.16,0,0,1,16.08-16.2h18.85a48.55,48.55,0,0,0-2.76,16.2v81H808.39Zm20.9,495.58a8.52,8.52,0,0,1-16.73-3.24l57.88-378.93h46.41Zm172.86,0a8.52,8.52,0,0,1-16.72-3.24l57.87-378.93h46.41Zm320.85-3.24a8.52,8.52,0,0,1-16.73,3.24l-87.56-382.17h46.41Zm126.72,6.9a8.49,8.49,0,0,1-12,.92,8.59,8.59,0,0,1-2.75-4.58l-87.56-382.17h46.4l57.88,378.93a8.55,8.55,0,0,1-2,6.9Z"/></g></svg>