<svg id="圖層_1" data-name="圖層 1" xmlns="http://www.w3.org/2000/svg" xmlns:xlink="http://www.w3.org/1999/xlink" viewBox="0 0 2267.72 2267.72"><defs><style>.cls-1,.cls-8{fill:none;}.cls-2{opacity:0.9;}.cls-3{clip-path:url(#clip-path);}.cls-4{fill:#fcfbfa;}.cls-5{fill:#ca7159;}.cls-6{fill:#cbc1aa;}.cls-7{fill:#efebe4;}.cls-8{stroke:#ca7159;stroke-miterlimit:10;stroke-width:31.68px;}.cls-9{fill:#613e3b;}.cls-10{clip-path:url(#clip-path-2);}</style><clipPath id="clip-path"><ellipse class="cls-1" cx="1133.86" cy="1133.86" rx="790.59" ry="793.4"/></clipPath><clipPath id="clip-path-2"><ellipse class="cls-1" cx="4013.86" cy="1133.86" rx="790.59" ry="793.4"/></clipPath></defs><title>web-icon</title><g class="cls-2"><g class="cls-3"><path class="cls-4" d="M208.33,866.2S218.26,39.45,1290.46-43.23,2640.64,638.85,2640.64,638.85,2978.19,1855.31,2184,1908.48,228.19,2292.36,208.33,866.2Z"/><path class="cls-5" d="M-345.8,1570.33s6.56-546.72,715.59-601.39,892.84,451,892.84,451,223.21,804.42-302,839.58S-332.67,2513.41-345.8,1570.33Z"/><path class="cls-6" d="M1056.34,507.43S1062.91-39.28,1771.93-94s892.85,451.05,892.85,451.05,223.21,804.41-302,839.58S1069.47,1450.52,1056.34,507.43Z"/><path class="cls-7" d="M1001.29,609.26S994.73,62.54,285.7,7.87s-892.84,451-892.84,451-223.21,804.42,302,839.58S988.16,1552.34,1001.29,609.26Z"/></g></g><ellipse class="cls-8" cx="1133.86" cy="1133.86" rx="790.59" ry="793.4"/><path class="cls-9" d="M1341.67,1047.19l50.17-3.24.27,0a117.75,117.75,0,0,0,88.06-52.35l39.67-59.27a242.66,242.66,0,0,0,37.65-175.46,54.38,54.38,0,0,0-17.09-31.36A52.58,52.58,0,0,0,1507.78,712c-61.26-3-120.39,18-166.54,59.1l-53,47.21a121.36,121.36,0,0,0-40.48,95.32,2.53,2.53,0,0,0,0,.27l2.86,51.11a72.69,72.69,0,0,1-19.65,53.9L816.73,1452.26c-11.09,11.77-16.82,27.93-16.12,45.49.77,19.34,9.48,38.33,23.3,50.81a70.78,70.78,0,0,0,46.82,17.7c1.84,0,3.68-.08,5.51-.23,17.21-1.4,32.28-9.12,42.48-21.82l372.73-470.67A70.28,70.28,0,0,1,1341.67,1047.19Zm-70.12,10-372.7,470.63c-5.69,7.08-14.45,11.45-24.65,12.28a45,45,0,0,1-33.3-11c-8.72-7.87-14.22-20-14.71-32.35-.41-10.41,2.79-19.79,8.95-26.33L1249.34,1037a99.17,99.17,0,0,0,26.84-73.53l-2.86-51a95.16,95.16,0,0,1,31.74-74.61l53-47.21A207.13,207.13,0,0,1,1506.56,738a27.24,27.24,0,0,1,16.86,7,28.06,28.06,0,0,1,8.83,16.2,216.28,216.28,0,0,1-33.57,156.42L1459,976.9a92.4,92.4,0,0,1-68.94,41l-50,3.23A95.8,95.8,0,0,0,1271.55,1057.14Z"/><path class="cls-9" d="M1537.2,1449l-277.74-257.63a12.64,12.64,0,0,0-18.09.86,13.21,13.21,0,0,0,.85,18.42l277.67,257.56c6.61,6.22,10.35,15.38,10.56,25.8.24,12.39-4.54,24.79-12.78,33.19a45,45,0,0,1-32.59,13c-10.23-.21-19.23-4-25.27-10.68l-247.49-276.71a12.64,12.64,0,0,0-18.09-.86,13.22,13.22,0,0,0-.84,18.42l247.55,276.78c10.88,12,26.38,18.77,43.64,19.12h1.34a70.91,70.91,0,0,0,49.85-20.65c13.07-13.31,20.65-32.8,20.27-52.14C1555.7,1475.89,1549,1460.11,1537.2,1449Z"/><path class="cls-9" d="M861.33,1044.72a117.46,117.46,0,0,0,77.52,31.92h.26l50.28.16A70.05,70.05,0,0,1,1041,1100l22.15,24.75a12.63,12.63,0,0,0,18.08.86,13.19,13.19,0,0,0,.84-18.41l-22.18-24.79a95.49,95.49,0,0,0-70.46-31.69l-50.14-.16a92.18,92.18,0,0,1-60.08-24.48L733.56,849.71a4.55,4.55,0,0,1,.26-6.08,4.36,4.36,0,0,1,6.25,0L872.69,978.69a33.22,33.22,0,0,0,47.55,0l15.58-15.86h0l27.67-28.18h0l15.57-15.87a34.72,34.72,0,0,0,0-48.42L846.47,735.27a4.56,4.56,0,0,1,0-6.36,4.34,4.34,0,0,1,6-.26L1025.64,877a95.68,95.68,0,0,1,24,61.18l.15,51.06a99,99,0,0,0,31.15,71.8l23.73,22a12.65,12.65,0,0,0,18.09-.86,13.23,13.23,0,0,0-.85-18.42l-23.69-22a72.59,72.59,0,0,1-22.83-52.64l-.15-51.2a2.62,2.62,0,0,0,0-.28,121.91,121.91,0,0,0-31.34-78.94,12.72,12.72,0,0,0-1.17-1.15L868.92,708.69a29.46,29.46,0,0,0-40.55,1.78,31,31,0,0,0,0,43.24L961,888.77a8.28,8.28,0,0,1,0,11.55L954.45,907,806.65,756.45a12.64,12.64,0,0,0-18.1,0,13.21,13.21,0,0,0,0,18.44l147.8,150.52-9.58,9.74L779,784.64a12.64,12.64,0,0,0-18.1,0,13.2,13.2,0,0,0,0,18.43l147.8,150.52-6.53,6.66a7.94,7.94,0,0,1-11.35,0l-132.62-135a29.62,29.62,0,0,0-42.45,0A30.82,30.82,0,0,0,714,866.5l146.24,177A12.61,12.61,0,0,0,861.33,1044.72Z"/><g class="cls-2"><g class="cls-10"><path class="cls-7" d="M3881.29,609.26S3874.73,62.54,3165.7,7.87s-892.84,451-892.84,451-223.21,804.42,302,839.58S3868.16,1552.34,3881.29,609.26Z"/></g></g></svg>