<svg id="圖層_1" data-name="圖層 1" xmlns="http://www.w3.org/2000/svg" xmlns:xlink="http://www.w3.org/1999/xlink" viewBox="0 0 2267.72 2267.72"><defs><style>.cls-1,.cls-8{fill:none;}.cls-2{opacity:0.9;}.cls-3{clip-path:url(#clip-path);}.cls-4{fill:#fcfbfa;}.cls-5{fill:#ca7159;}.cls-6{fill:#cbc1aa;}.cls-7{fill:#efebe4;}.cls-8{stroke:#ca7159;stroke-miterlimit:10;stroke-width:31.68px;}.cls-9{fill:#613e3b;}.cls-10{clip-path:url(#clip-path-2);}</style><clipPath id="clip-path"><ellipse class="cls-1" cx="1133.86" cy="1133.86" rx="790.59" ry="793.4"/></clipPath><clipPath id="clip-path-2"><ellipse class="cls-1" cx="4013.86" cy="1133.86" rx="790.59" ry="793.4"/></clipPath></defs><title>web-icon</title><g class="cls-2"><g class="cls-3"><path class="cls-4" d="M208.33,866.2S218.26,39.45,1290.46-43.23,2640.64,638.85,2640.64,638.85,2978.19,1855.31,2184,1908.48,228.19,2292.36,208.33,866.2Z"/><path class="cls-5" d="M-345.8,1570.33s6.56-546.72,715.59-601.39,892.84,451,892.84,451,223.21,804.42-302,839.58S-332.67,2513.41-345.8,1570.33Z"/><path class="cls-6" d="M1056.34,507.43S1062.91-39.28,1771.93-94s892.85,451.05,892.85,451.05,223.21,804.41-302,839.58S1069.47,1450.52,1056.34,507.43Z"/><path class="cls-7" d="M1001.29,609.26S994.73,62.54,285.7,7.87s-892.84,451-892.84,451-223.21,804.42,302,839.58S988.16,1552.34,1001.29,609.26Z"/></g></g><ellipse class="cls-8" cx="1133.86" cy="1133.86" rx="790.59" ry="793.4"/><g id="outline"><path class="cls-9" d="M1245.57,1141.79c-18.26-62-83.12-97.35-144.87-79a116.82,116.82,0,0,0-78.74,79c-61.74,18.35-97,83.46-78.69,145.42s83.17,97.32,144.91,79a116.52,116.52,0,0,0,45.59-25.86,115.3,115.3,0,0,0,78.75,30.67c64.39,0,116.58-52.39,116.58-117a116.93,116.93,0,0,0-83.53-112.19Zm-33,192.77a79.58,79.58,0,0,1-64.24-32.23,18.12,18.12,0,0,0-29,0,80.39,80.39,0,1,1-79-127.54,18.17,18.17,0,0,0,14.54-14.59,80.23,80.23,0,0,1,157.84,0,18.17,18.17,0,0,0,14.54,14.59,80.59,80.59,0,0,1-14.71,159.77Z"/><path class="cls-9" d="M998,1014.05a78.14,78.14,0,0,0,26.13,4.6,69.76,69.76,0,0,0,35.23-9.42c18.33-10.62,30.7-28.7,34.84-50.92a95.77,95.77,0,0,0-60.53-105.22c-21.25-7.52-43-5.8-61.36,4.82s-30.7,28.7-34.84,50.92A95.78,95.78,0,0,0,998,1014.05ZM973.1,915.53a37.09,37.09,0,0,1,17.32-26.08,34,34,0,0,1,17.16-4.5,42,42,0,0,1,14,2.5,59.41,59.41,0,0,1,36.92,64.16A35.17,35.17,0,0,1,1010,979.7a59.41,59.41,0,0,1-36.92-64.17Z"/><path class="cls-9" d="M956.13,1145.44c27.77-32.38,20.77-84.29-15.62-115.72s-88.58-30.63-116.35,1.75c-13.8,16.1-19.53,37.26-16.13,59.61a95.33,95.33,0,0,0,91.9,79.17C921.45,1170.25,942,1162,956.13,1145.44Zm-27.51-23.76c-14.71,17.16-43.94,16.22-65.16-2.1a56.82,56.82,0,0,1-19.55-34A35.31,35.31,0,0,1,880.3,1043a56.86,56.86,0,0,1,36.53,14.38c21.21,18.33,26.5,47.19,11.78,64.35Z"/><path class="cls-9" d="M1208.21,1007.52a69.6,69.6,0,0,0,35.14,9.33c28.85,0,58.38-16.9,75.26-46.25,24-41.72,13.53-93-23.34-114.4-18.33-10.62-40.12-12.33-61.36-4.82a92.86,92.86,0,0,0-49,41.74C1160.87,934.84,1171.34,986.15,1208.21,1007.52Zm8.1-96.19A56.55,56.55,0,0,1,1246,885.75a41.76,41.76,0,0,1,14-2.51,33.93,33.93,0,0,1,17.17,4.51c19.54,11.32,24.05,40.32,10.05,64.64s-41.27,34.9-60.81,23.58S1202.32,935.65,1216.31,911.33Z"/><path class="cls-9" d="M1459.51,1084.73c3.41-22.35-2.32-43.52-16.12-59.61s-33.71-24.89-56.17-24.89h-.17a95.49,95.49,0,0,0-91.75,79.26c-3.41,22.35,2.32,43.52,16.12,59.61s33.71,24.89,56.17,24.89h.17a95.51,95.51,0,0,0,91.77-79.25Zm-35.88-5.51a59.21,59.21,0,0,1-56,48.34h-.1a35.24,35.24,0,0,1-37.12-33.28,35.85,35.85,0,0,1,.71-9.3,59.22,59.22,0,0,1,56-48.32h.09a35.31,35.31,0,0,1,36.41,42.57Z"/><path class="cls-9" d="M1622.22,1400.7a96.81,96.81,0,0,0-36.84-32.79c128.78-250.25,31-557.89-218.35-687.12S811.11,649.66,682.34,899.91s-31,557.89,218.34,687.13a506.62,506.62,0,0,0,467.29-.49l81.12,54.28a18.1,18.1,0,0,0,20.14,0l122.47-81.94a113.48,113.48,0,0,0,31.31-157Zm-488.45,206.76c-260.2,0-471.88-212.44-471.88-473.56s211.68-473.55,471.88-473.55,471.88,212.44,471.88,473.55a475.15,475.15,0,0,1-56,223.88c-2.67-.23-5.34-.38-8-.38a96.41,96.41,0,0,0-38.26,7.87,438.09,438.09,0,0,0,66-231.37c0-241-195.4-437.12-435.58-437.12S698.19,892.87,698.19,1133.9,893.59,1571,1133.77,1571a430.8,430.8,0,0,0,168.67-34,112.52,112.52,0,0,0,24.18,21.87l6.49,4.35A472,472,0,0,1,1133.77,1607.46Zm162.34-206.77-.78,1.17a112.83,112.83,0,0,0-13.16,98.62c.54,1.62,1.12,3.22,1.73,4.82a395,395,0,0,1-150.13,29.3c-220.17,0-399.28-179.75-399.28-400.7S913.6,733.21,1133.77,733.21,1533.05,913,1533.05,1133.9a401.28,401.28,0,0,1-88.4,251.44,96.71,96.71,0,0,0-148.54,15.35ZM1601.72,1489a77.19,77.19,0,0,1-30.15,39.62l-112.41,75.2-112.41-75.2a76.87,76.87,0,0,1-20.45-20.31,18,18,0,0,0-4.27-6.89,76.63,76.63,0,0,1,3.49-79.31l.78-1.17a60.49,60.49,0,0,1,93.25-9.26l26.77,26.86a18.08,18.08,0,0,0,25.66,0h0l26.77-26.86a60.36,60.36,0,0,1,56.76-16.17h0a60.5,60.5,0,0,1,36.53,25.44l.76,1.15A76.55,76.55,0,0,1,1601.72,1489Z"/></g><g class="cls-2"><g class="cls-10"><path class="cls-7" d="M3881.29,609.26S3874.73,62.54,3165.7,7.87s-892.84,451-892.84,451-223.21,804.42,302,839.58S3868.16,1552.34,3881.29,609.26Z"/></g></g></svg>